<svg width="20.000000" height="20.000000" viewBox="0 0 20 20" fill="none" xmlns="http://www.w3.org/2000/svg" xmlns:xlink="http://www.w3.org/1999/xlink">
	<desc>
			Created with Pixso.
	</desc>
	<defs>
		<clipPath id="clip144_147">
			<rect id="clarity:heart-line" rx="-0.500000" width="19.000000" height="19.000000" transform="translate(0.500000 0.500000)" fill="white" fill-opacity="0"/>
		</clipPath>
	</defs>
	<rect id="clarity:heart-line" rx="-0.500000" width="19.000000" height="19.000000" transform="translate(0.500000 0.500000)" fill="#FFFFFF" fill-opacity="0"/>
	<g clip-path="url(#clip144_147)">
		<path id="Vector" d="M10 18.01C9.87 18.01 9.75 17.97 9.66 17.9C6.57 15.5 4.44 13.43 2.95 11.39C1.05 8.78 0.62 6.38 1.66 4.24C2.41 2.71 4.54 1.46 7.04 2.19C8.24 2.53 9.28 3.27 10 4.28C10.71 3.27 11.75 2.53 12.95 2.19C15.44 1.47 17.58 2.71 18.33 4.24C19.37 6.38 18.94 8.78 17.04 11.39C15.55 13.43 13.42 15.5 10.33 17.9C10.24 17.97 10.12 18.01 10 18.01ZM5.62 3.1C5.03 3.07 4.44 3.21 3.92 3.5C3.39 3.78 2.96 4.21 2.66 4.72C1.8 6.49 2.19 8.46 3.85 10.73C5.62 13.01 7.68 15.03 10 16.75C12.31 15.03 14.37 13.01 16.14 10.73C17.81 8.46 18.19 6.49 17.33 4.73C16.77 3.62 15.11 2.73 13.25 3.26C12.66 3.43 12.1 3.73 11.63 4.13C11.16 4.53 10.78 5.03 10.51 5.59C10.46 5.69 10.39 5.78 10.3 5.84C10.21 5.9 10.1 5.93 9.99 5.93C9.88 5.93 9.77 5.9 9.68 5.84C9.59 5.78 9.52 5.69 9.48 5.59C9.21 5.03 8.83 4.53 8.36 4.13C7.88 3.73 7.33 3.43 6.73 3.26C6.37 3.15 6 3.1 5.62 3.1Z" fill="#121212" fill-opacity="1.000000" fill-rule="nonzero"/>
	</g>
</svg>
