<svg width="20" height="20" viewBox="0 0 20 20" fill="none" xmlns="http://www.w3.org/2000/svg">
<path fill-rule="evenodd" clip-rule="evenodd" d="M6.19066 3.80951C6.44325 3.80951 6.68549 3.90985 6.8641 4.08846C7.0427 4.26706 7.14304 4.5093 7.14304 4.76189V6.66665C7.14304 6.91924 7.0427 7.16148 6.8641 7.34009C6.68549 7.51869 6.44325 7.61903 6.19066 7.61903C5.93808 7.61903 5.69583 7.51869 5.51723 7.34009C5.33862 7.16148 5.23828 6.91924 5.23828 6.66665V4.76189C5.23828 4.5093 5.33862 4.26706 5.51723 4.08846C5.69583 3.90985 5.93808 3.80951 6.19066 3.80951V3.80951Z" stroke="#FFFDF5" stroke-linecap="round" stroke-linejoin="round"/>
<path d="M17.6188 5.71429H7.14258" stroke="#FFFDF5" stroke-linecap="round" stroke-linejoin="round"/>
<path d="M5.238 5.71429H2.38086" stroke="#FFFDF5" stroke-linecap="round" stroke-linejoin="round"/>
<path fill-rule="evenodd" clip-rule="evenodd" d="M6.19066 13.3333C6.44325 13.3333 6.68549 13.4337 6.8641 13.6123C7.0427 13.7909 7.14304 14.0331 7.14304 14.2857V16.1905C7.14304 16.443 7.0427 16.6853 6.8641 16.8639C6.68549 17.0425 6.44325 17.1428 6.19066 17.1428C5.93808 17.1428 5.69583 17.0425 5.51723 16.8639C5.33862 16.6853 5.23828 16.443 5.23828 16.1905V14.2857C5.23828 14.0331 5.33862 13.7909 5.51723 13.6123C5.69583 13.4337 5.93808 13.3333 6.19066 13.3333Z" stroke="#FFFDF5" stroke-linecap="round" stroke-linejoin="round"/>
<path d="M17.6188 15.2381H7.14258" stroke="#FFFDF5" stroke-linecap="round" stroke-linejoin="round"/>
<path d="M5.238 15.2381H2.38086" stroke="#FFFDF5" stroke-linecap="round" stroke-linejoin="round"/>
<path fill-rule="evenodd" clip-rule="evenodd" d="M13.8098 8.57141C14.0624 8.57141 14.3046 8.67175 14.4832 8.85036C14.6618 9.02896 14.7622 9.27121 14.7622 9.52379V11.4286C14.7622 11.6811 14.6618 11.9234 14.4832 12.102C14.3046 12.2806 14.0624 12.3809 13.8098 12.3809C13.5572 12.3809 13.315 12.2806 13.1364 12.102C12.9578 11.9234 12.8574 11.6811 12.8574 11.4286V9.52379C12.8574 9.27121 12.9578 9.02896 13.1364 8.85036C13.315 8.67175 13.5572 8.57141 13.8098 8.57141V8.57141Z" stroke="#FFFDF5" stroke-linecap="round" stroke-linejoin="round"/>
<path d="M12.857 10.4762H2.38086" stroke="#FFFDF5" stroke-linecap="round" stroke-linejoin="round"/>
<path d="M17.6189 10.4762H14.7617" stroke="#FFFDF5" stroke-linecap="round" stroke-linejoin="round"/>
</svg>
