<svg width="17" height="17" viewBox="0 0 17 17" fill="none" xmlns="http://www.w3.org/2000/svg">
<g clip-path="url(#clip0_285_195)">
<path fill-rule="evenodd" clip-rule="evenodd" d="M12.2189 15.9375C12.3598 15.9375 12.495 15.8815 12.5946 15.7819C12.6942 15.6822 12.7502 15.5471 12.7502 15.4062V2.87616L16.0928 6.21985C16.1926 6.3196 16.3279 6.37564 16.4689 6.37564C16.61 6.37564 16.7453 6.3196 16.8451 6.21985C16.9448 6.12009 17.0009 5.9848 17.0009 5.84372C17.0009 5.70265 16.9448 5.56735 16.8451 5.4676L12.5951 1.2176C12.5457 1.16812 12.4871 1.12887 12.4225 1.10209C12.358 1.07531 12.2888 1.06152 12.2189 1.06152C12.1491 1.06152 12.0799 1.07531 12.0153 1.10209C11.9508 1.12887 11.8922 1.16812 11.8428 1.2176L7.59281 5.4676C7.49305 5.56735 7.43701 5.70265 7.43701 5.84372C7.43701 5.9848 7.49305 6.12009 7.59281 6.21985C7.69256 6.3196 7.82786 6.37564 7.96893 6.37564C8.11001 6.37564 8.2453 6.3196 8.34506 6.21985L11.6877 2.87616V15.4062C11.6877 15.5471 11.7437 15.6822 11.8433 15.7819C11.9429 15.8815 12.078 15.9375 12.2189 15.9375ZM4.78143 1.06247C4.92233 1.06247 5.05746 1.11844 5.15708 1.21807C5.25671 1.3177 5.31268 1.45283 5.31268 1.59372V14.1238L8.65531 10.7801C8.75506 10.6803 8.89036 10.6243 9.03143 10.6243C9.17251 10.6243 9.3078 10.6803 9.40756 10.7801C9.50731 10.8799 9.56335 11.0152 9.56335 11.1562C9.56335 11.2973 9.50731 11.4326 9.40756 11.5323L5.15756 15.7823C5.10821 15.8318 5.04959 15.8711 4.98504 15.8979C4.9205 15.9246 4.85131 15.9384 4.78143 15.9384C4.71156 15.9384 4.64236 15.9246 4.57782 15.8979C4.51328 15.8711 4.45466 15.8318 4.40531 15.7823L0.155308 11.5323C0.0555532 11.4326 -0.000488285 11.2973 -0.000488281 11.1562C-0.000488278 11.0152 0.0555532 10.8799 0.155308 10.7801C0.255062 10.6803 0.390359 10.6243 0.531433 10.6243C0.672507 10.6243 0.807803 10.6803 0.907558 10.7801L4.25018 14.1238V1.59372C4.25018 1.45283 4.30615 1.3177 4.40578 1.21807C4.50541 1.11844 4.64054 1.06247 4.78143 1.06247Z" fill="#FFFDF5"/>
</g>
<defs>
<clipPath id="clip0_285_195">
<rect width="17" height="17" fill="white"/>
</clipPath>
</defs>
</svg>
