<svg width="16" height="18" viewBox="0 0 16 18" fill="none" xmlns="http://www.w3.org/2000/svg">
<path d="M13.0779 17.8888H2.92237C2.70859 17.8837 2.4979 17.8366 2.30233 17.7501C2.10677 17.6636 1.93016 17.5394 1.78261 17.3846C1.63506 17.2299 1.51945 17.0475 1.44238 16.8481C1.36532 16.6486 1.32831 16.4359 1.33348 16.2221V5.23877H2.44459V16.2221C2.43929 16.29 2.44746 16.3583 2.46863 16.423C2.4898 16.4877 2.52356 16.5476 2.56796 16.5992C2.61236 16.6509 2.66653 16.6932 2.72736 16.7238C2.78818 16.7544 2.85445 16.7727 2.92237 16.7777H13.0779C13.1458 16.7727 13.2121 16.7544 13.2729 16.7238C13.3338 16.6932 13.3879 16.6509 13.4323 16.5992C13.4767 16.5476 13.5105 16.4877 13.5317 16.423C13.5528 16.3583 13.561 16.29 13.5557 16.2221V5.23877H14.6668V16.2221C14.672 16.4359 14.635 16.6486 14.5579 16.8481C14.4809 17.0475 14.3652 17.2299 14.2177 17.3846C14.0701 17.5394 13.8935 17.6636 13.698 17.7501C13.5024 17.8366 13.2917 17.8837 13.0779 17.8888Z" fill="#121212"/>
<path d="M15.1004 3.99978H0.778212C0.630869 3.99978 0.489562 3.94125 0.385375 3.83706C0.281188 3.73288 0.222656 3.59157 0.222656 3.44423C0.222656 3.29688 0.281188 3.15558 0.385375 3.05139C0.489562 2.9472 0.630869 2.88867 0.778212 2.88867H15.1004C15.2478 2.88867 15.3891 2.9472 15.4933 3.05139C15.5975 3.15558 15.656 3.29688 15.656 3.44423C15.656 3.59157 15.5975 3.73288 15.4933 3.83706C15.3891 3.94125 15.2478 3.99978 15.1004 3.99978Z" fill="#121212"/>
<path d="M9.66699 6.22217H10.7781V14.5555H9.66699V6.22217Z" fill="#121212"/>
<path d="M5.22266 6.22217H6.33377V14.5555H5.22266V6.22217Z" fill="#121212"/>
<path d="M10.7782 2.25577H9.72266V1.22244H6.27821V2.25577H5.22266V1.22244C5.2223 0.937132 5.33171 0.66262 5.52821 0.455772C5.72472 0.248925 5.99326 0.125593 6.27821 0.111328H9.72266C10.0076 0.125593 10.2762 0.248925 10.4727 0.455772C10.6692 0.66262 10.7786 0.937132 10.7782 1.22244V2.25577Z" fill="#121212"/>
</svg>
