<svg width="20.000000" height="20.000000" viewBox="0 0 20 20" fill="none" xmlns="http://www.w3.org/2000/svg" xmlns:xlink="http://www.w3.org/1999/xlink">
	<desc>
			Created with Pixso.
	</desc>
	<defs>
		<clipPath id="clip144_149">
			<rect id="clarity:avatar-line" rx="-0.500000" width="19.000000" height="19.000000" transform="translate(0.500000 0.500000)" fill="white" fill-opacity="0"/>
		</clipPath>
	</defs>
	<rect id="clarity:avatar-line" rx="-0.500000" width="19.000000" height="19.000000" transform="translate(0.500000 0.500000)" fill="#FFFFFF" fill-opacity="0"/>
	<g clip-path="url(#clip144_149)">
		<path id="Vector" d="M10 9.44C10.76 9.44 11.52 9.21 12.16 8.78C12.8 8.36 13.29 7.75 13.59 7.04C13.88 6.33 13.96 5.55 13.81 4.79C13.66 4.04 13.29 3.34 12.75 2.8C12.2 2.26 11.51 1.89 10.75 1.74C10 1.59 9.22 1.66 8.51 1.96C7.8 2.25 7.19 2.75 6.76 3.39C6.33 4.03 6.11 4.78 6.11 5.55C6.11 6.58 6.52 7.57 7.25 8.3C7.97 9.03 8.96 9.44 10 9.44ZM10 2.77C10.54 2.77 11.08 2.94 11.54 3.24C12 3.55 12.35 3.98 12.56 4.49C12.77 5 12.83 5.55 12.72 6.09C12.61 6.63 12.35 7.13 11.96 7.51C11.57 7.9 11.08 8.17 10.54 8.27C10 8.38 9.44 8.33 8.93 8.12C8.42 7.91 7.99 7.55 7.69 7.09C7.38 6.64 7.22 6.1 7.22 5.55C7.22 4.81 7.51 4.11 8.03 3.59C8.55 3.07 9.26 2.77 10 2.77Z" fill="#121212" fill-opacity="1.000000" fill-rule="nonzero"/>
		<path id="Vector" d="M16.92 13.53C16.03 12.59 14.96 11.84 13.77 11.33C12.58 10.82 11.29 10.55 10 10.55C8.7 10.55 7.42 10.82 6.23 11.33C5.04 11.84 3.96 12.59 3.07 13.53C2.88 13.74 2.77 14.01 2.77 14.3L2.77 17.22C2.77 17.51 2.89 17.79 3.1 18C3.31 18.21 3.59 18.33 3.88 18.33L16.11 18.33C16.4 18.33 16.68 18.21 16.89 18C17.1 17.79 17.22 17.51 17.22 17.22L17.22 14.3C17.22 14.01 17.11 13.74 16.92 13.53ZM16.11 17.22L3.88 17.22L3.88 14.29C4.67 13.46 5.62 12.8 6.67 12.35C7.72 11.9 8.85 11.67 10 11.67C11.14 11.67 12.27 11.9 13.32 12.35C14.37 12.8 15.32 13.46 16.11 14.29L16.11 17.22Z" fill="#121212" fill-opacity="1.000000" fill-rule="nonzero"/>
	</g>
</svg>
