<svg width="20.000000" height="20.000000" viewBox="0 0 20 20" fill="none" xmlns="http://www.w3.org/2000/svg" xmlns:xlink="http://www.w3.org/1999/xlink">
	<desc>
			Created with Pixso.
	</desc>
	<defs>
		<clipPath id="clip144_145">
			<rect id="clarity:shopping-bag-line" rx="-0.500000" width="19.000000" height="19.000000" transform="translate(0.500000 0.500000)" fill="white" fill-opacity="0"/>
		</clipPath>
	</defs>
	<rect id="clarity:shopping-bag-line" rx="-0.500000" width="19.000000" height="19.000000" transform="translate(0.500000 0.500000)" fill="#FFFFFF" fill-opacity="0"/>
	<g clip-path="url(#clip144_145)">
		<path id="Vector" d="M13.88 6.66L13.88 5.02C13.88 4.51 13.78 4.01 13.59 3.53C13.39 3.06 13.11 2.63 12.75 2.27C12.38 1.91 11.96 1.63 11.48 1.43C11.01 1.23 10.51 1.13 10 1.13C9.48 1.13 8.98 1.23 8.51 1.43C8.04 1.63 7.61 1.91 7.25 2.27C6.88 2.63 6.6 3.06 6.4 3.53C6.21 4.01 6.11 4.51 6.11 5.02L6.11 8.91C6.11 9.06 6.16 9.2 6.27 9.3C6.37 9.41 6.51 9.47 6.66 9.47C6.81 9.47 6.95 9.41 7.05 9.3C7.16 9.2 7.22 9.06 7.22 8.91L7.22 7.77L11.66 7.77L11.66 6.66L7.22 6.66L7.22 5.02C7.22 4.29 7.51 3.58 8.03 3.06C8.55 2.54 9.26 2.25 10 2.25C10.73 2.25 11.44 2.54 11.96 3.06C12.48 3.58 12.77 4.29 12.77 5.02L12.77 8.88C12.77 9.03 12.83 9.17 12.94 9.28C13.04 9.38 13.18 9.44 13.33 9.44C13.48 9.44 13.62 9.38 13.72 9.28C13.83 9.17 13.88 9.03 13.88 8.88L13.88 7.77L16.66 7.77L16.66 17.77L3.33 17.77L3.33 7.77L5 7.77L5 6.66L2.22 6.66L2.22 17.82C2.22 18.1 2.33 18.37 2.53 18.57C2.73 18.77 3 18.88 3.28 18.88L16.71 18.88C16.99 18.88 17.26 18.77 17.46 18.57C17.66 18.37 17.77 18.1 17.77 17.82L17.77 6.66L13.88 6.66Z" fill="#121212" fill-opacity="1.000000" fill-rule="nonzero"/>
	</g>
</svg>
