<svg width="20.000000" height="20.000000" viewBox="0 0 20 20" fill="none" xmlns="http://www.w3.org/2000/svg" xmlns:xlink="http://www.w3.org/1999/xlink">
	<desc>
			Created with Pixso.
	</desc>
	<defs>
		<clipPath id="clip144_142">
			<rect id="clarity:search-line" rx="-0.500000" width="19.000000" height="19.000000" transform="translate(0.500000 0.500000)" fill="white" fill-opacity="0"/>
		</clipPath>
	</defs>
	<rect id="clarity:search-line" rx="-0.500000" width="19.000000" height="19.000000" transform="translate(0.500000 0.500000)" fill="#FFFFFF" fill-opacity="0"/>
	<g clip-path="url(#clip144_142)">
		<path id="Vector" d="M9.07 2.8C10.27 2.8 11.45 3.16 12.45 3.82C13.45 4.49 14.23 5.44 14.69 6.55C15.15 7.66 15.27 8.89 15.04 10.07C14.81 11.25 14.23 12.33 13.38 13.18C12.53 14.03 11.44 14.61 10.26 14.85C9.08 15.09 7.86 14.97 6.75 14.5C5.63 14.04 4.68 13.26 4.01 12.26C3.35 11.26 2.99 10.09 2.99 8.88C3 7.27 3.64 5.73 4.78 4.59C5.91 3.45 7.46 2.81 9.07 2.8ZM9.07 1.66C7.64 1.66 6.24 2.09 5.05 2.88C3.87 3.67 2.94 4.8 2.39 6.12C1.85 7.44 1.7 8.89 1.98 10.29C2.26 11.69 2.95 12.98 3.96 13.99C4.97 15 6.26 15.69 7.66 15.97C9.06 16.25 10.51 16.1 11.83 15.56C13.15 15.01 14.28 14.08 15.07 12.9C15.87 11.71 16.29 10.31 16.29 8.88C16.29 6.97 15.53 5.13 14.17 3.78C12.82 2.42 10.98 1.66 9.07 1.66Z" fill="#121212" fill-opacity="1.000000" fill-rule="nonzero"/>
		<path id="Vector" d="M19.44 18.49L15.35 14.37L14.56 15.15L18.65 19.27C18.7 19.32 18.76 19.37 18.83 19.39C18.9 19.42 18.97 19.44 19.04 19.44C19.12 19.44 19.19 19.42 19.26 19.4C19.32 19.37 19.39 19.33 19.44 19.28C19.49 19.22 19.53 19.16 19.56 19.1C19.59 19.03 19.6 18.96 19.6 18.88C19.6 18.81 19.59 18.74 19.56 18.67C19.53 18.6 19.49 18.54 19.44 18.49Z" fill="#121212" fill-opacity="1.000000" fill-rule="nonzero"/>
	</g>
</svg>
