<svg width="18" height="18" viewBox="0 0 18 18" fill="none" xmlns="http://www.w3.org/2000/svg">
<path d="M9.00022 0.388672C4.10022 0.388672 0.111328 3.87756 0.111328 8.16645C0.111328 12.4553 4.10022 15.9442 9.00022 15.9442C9.91697 15.9432 10.8292 15.816 11.7113 15.5664L14.7836 17.522C14.8674 17.5758 14.9642 17.6061 15.0638 17.6096C15.1634 17.6132 15.2621 17.5898 15.3496 17.5421C15.4371 17.4944 15.5101 17.424 15.561 17.3384C15.612 17.2528 15.6389 17.155 15.6391 17.0553V13.3164C16.3342 12.6496 16.889 11.8504 17.2706 10.966C17.6522 10.0815 17.8531 9.12969 17.8613 8.16645C17.8891 3.87756 13.9002 0.388672 9.00022 0.388672ZM14.7169 12.672C14.661 12.7238 14.6164 12.7865 14.5858 12.8563C14.5553 12.9261 14.5394 13.0014 14.5391 13.0776V16.0442L12.1058 14.4942C12.0379 14.4513 11.9615 14.4236 11.8819 14.4131C11.8023 14.4025 11.7214 14.4094 11.6447 14.4331C10.7884 14.6991 9.89683 14.8339 9.00022 14.8331C4.71133 14.8331 1.22244 11.8442 1.22244 8.16645C1.22244 4.48867 4.71133 1.49978 9.00022 1.49978C13.2891 1.49978 16.778 4.48867 16.778 8.16645C16.7653 9.01927 16.5756 9.86015 16.2208 10.6358C15.866 11.4114 15.3538 12.1048 14.7169 12.672Z" fill="#514A7E"/>
<path d="M9 10.4613C9.14735 10.4613 9.28865 10.4028 9.39284 10.2986C9.49703 10.1944 9.55556 10.0531 9.55556 9.90576V3.71132C9.55556 3.56397 9.49703 3.42267 9.39284 3.31848C9.28865 3.21429 9.14735 3.15576 9 3.15576C8.85266 3.15576 8.71135 3.21429 8.60717 3.31848C8.50298 3.42267 8.44445 3.56397 8.44445 3.71132V9.89465C8.44297 9.96854 8.45625 10.042 8.4835 10.1107C8.51076 10.1794 8.55145 10.2419 8.60318 10.2947C8.65492 10.3475 8.71667 10.3894 8.7848 10.418C8.85294 10.4466 8.9261 10.4613 9 10.4613Z" fill="#514A7E"/>
<path d="M8.99963 13.0945C9.40771 13.0945 9.73852 12.7637 9.73852 12.3556C9.73852 11.9475 9.40771 11.6167 8.99963 11.6167C8.59155 11.6167 8.26074 11.9475 8.26074 12.3556C8.26074 12.7637 8.59155 13.0945 8.99963 13.0945Z" fill="#514A7E"/>
</svg>
